<?xml version="1.0"?>
<svg width="640" height="480" xmlns="http://www.w3.org/2000/svg" xmlns:svg="http://www.w3.org/2000/svg">
 <!-- Created with SVG-edit - http://svg-edit.googlecode.com/ -->
 <g>
  <title>Layer 1</title>
  <path stroke="#5656ff" id="svg_7" d="m359.902322,228.474264c-0.453413,-13.440635 -16.268654,-24.240411 -35.721055,-24.247261c-13.001123,0.003425 -24.356161,4.836436 -30.595517,12.046563c-2.932399,-1.120053 -6.308354,-1.770848 -9.906087,-1.770848c-11.231827,0.00685 -20.369084,6.18598 -20.778141,13.927019c-11.793665,2.692237 -20.329657,10.361346 -20.339514,19.475904c0,11.344389 13.242615,20.551429 29.57041,20.551429l0,-0.00685l78.233447,0c16.322866,0 29.57041,-9.20704 29.57041,-20.551429c-0.009857,-9.032353 -8.397996,-16.670634 -20.033953,-19.424526zm-9.536457,33.132329l-78.238376,0c-10.886839,-0.020551 -19.698821,-6.138027 -19.718535,-13.704378c-0.009857,-6.788822 7.146182,-12.392512 16.510145,-13.464611c1.306026,-0.147285 2.474058,-0.65422 3.23796,-1.418049c0.763902,-0.763828 1.044821,-1.702343 0.803329,-2.613457c-0.137995,-0.506935 -0.221778,-0.986469 -0.221778,-1.452301c0.019714,-4.195917 4.90376,-7.590328 10.941052,-7.597178c3.188676,0 5.997865,0.952216 8.04808,2.503849c1.148318,0.880286 2.892972,1.284464 4.568628,1.058399c1.685513,-0.226066 3.085179,-1.051548 3.686444,-2.1579c3.691373,-6.823075 13.119405,-11.686913 24.20338,-11.680062c14.287436,0.013701 25.844538,8.04931 25.879037,17.979075c0,0.551463 -0.044356,1.116628 -0.133067,1.702343c-0.241492,1.770848 1.503162,3.370434 4.016647,3.695832c9.166827,1.178282 16.135587,6.734018 16.120802,13.437209c-0.019714,7.569776 -8.816911,13.690677 -19.70375,13.711229zm-71.003482,33.235086c0,-3.819141 0.103496,-18.581917 0.103496,-18.605894c0.009857,-1.400922 -1.217315,-2.668261 -3.095036,-3.192322c-1.872793,-0.520636 -4.016647,-0.202089 -5.416313,0.822057c-0.02957,0.027402 -5.110752,3.760912 -10.256004,8.021908c-2.577554,2.147624 -5.164965,4.408282 -7.210252,6.494252c-1.966432,2.219554 -3.711086,3.651304 -3.996934,6.456574c0.014785,5.733849 6.682913,10.378472 14.942914,10.388747c8.240288,-0.013701 14.928129,-4.658324 14.928129,-10.385322zm-19.999454,0.154136c0.448485,-1.195408 5.327602,-5.887984 9.822304,-9.467358c0.12321,-0.099332 0.251348,-0.20894 0.374559,-0.304846c-0.024642,3.849968 -0.049284,7.857496 -0.049284,9.618069c0,1.94211 -2.271993,3.521145 -5.071325,3.527995c-2.730335,-0.00685 -4.948115,-1.50368 -5.076254,-3.37386zm56.449912,-0.154136c0,-3.819141 0.103496,-18.578492 0.103496,-18.599043c0.009857,-1.404348 -1.217315,-2.668261 -3.095036,-3.199172c-1.877721,-0.520636 -4.011719,-0.198664 -5.421242,0.828908c-0.02957,0.027402 -5.100896,3.747211 -10.251075,8.021908c-2.572626,2.133923 -5.160037,4.401431 -7.210252,6.487401c-1.966432,2.22298 -3.711086,3.658154 -3.987077,6.46685c0,5.726998 6.673056,10.371621 14.928129,10.371621c8.245216,-0.003425 14.933057,-4.651473 14.933057,-10.378472zm-20.009311,0.160986c0.453413,-1.195408 5.327602,-5.89141 9.822304,-9.470784c0.12321,-0.102757 0.24642,-0.205514 0.36963,-0.304846c-0.024642,3.846543 -0.054212,7.857496 -0.054212,9.614644c-0.009857,1.945535 -2.271993,3.51772 -5.066397,3.52457c-2.730335,-0.00685 -4.938258,-1.500254 -5.071325,-3.363584zm53.749148,-21.962627c-1.872793,-0.524061 -4.021576,-0.205514 -5.416313,0.822057c-0.044356,0.027402 -5.110752,3.757486 -10.251075,8.021908c-2.577554,2.140774 -5.169893,4.401431 -7.205323,6.494252c-1.981217,2.22298 -3.716015,3.654729 -4.001862,6.459999c0,5.726998 6.673056,10.375047 14.933057,10.375047c8.245216,0 14.918272,-4.648048 14.918272,-10.375047c0,-3.819141 0.108425,-18.581917 0.108425,-18.602469c0.014785,-1.404348 -1.212387,-2.671686 -3.085179,-3.195747zm-6.860335,21.798216c-0.019714,1.945535 -2.28185,3.51772 -5.081182,3.52457c-2.725406,-0.00685 -4.938258,-1.500254 -5.066397,-3.363584c0.453413,-1.195408 5.327602,-5.89141 9.822304,-9.470784c0.12321,-0.095907 0.24642,-0.202089 0.364702,-0.301421c-0.019714,3.846543 -0.039427,7.850646 -0.039427,9.611218z" opacity="0.5" stroke-linecap="null" stroke-linejoin="null" stroke-dasharray="null" stroke-width="5" fill="#ffffff"/>
  <path opacity="0.5" id="svg_1" d="m465.19001,271.460005c0,-20.710668 -53.725849,-37.500005 -120.000017,-37.500005l0,-30.000003l0,0c66.274168,0 120.000017,16.789321 120.000017,37.500005l0,30.000003c0,17.09994 -37.01779,32.034241 -90.000014,36.309226l0,15.000004l-30.000003,-28.809224l30.000003,-31.190782l0,15.000004l0,0c35.726316,-2.88265 65.222641,-10.741247 79.981844,-21.309223" stroke-width="5" stroke="#fffcfc" fill="#007fff"/>
  <path opacity="0.5" transform="rotate(180 219.19000244140622,250.3646240234375) " id="svg_5" d="m279.19001,258.46c0,-20.71066 -53.72585,-37.5 -120.00002,-37.5l0,-30l0,0c66.27417,0 120.00002,16.78932 120.00002,37.5l0,30c0,17.09994 -37.01779,32.03425 -90.00001,36.30923l0,15l-30.00001,-28.80922l30.00001,-31.19078l0,15l0,0c35.72631,-2.88265 65.22264,-10.74124 79.98184,-21.30922" stroke-width="5" stroke="#fffcfc" fill="#007fff"/>
  <text stroke="#fffcfc" transform="matrix(1.568099856376648,0,0,1,-113.61997127532959,0) " xml:space="preserve" text-anchor="middle" font-family="serif" font-size="24" id="svg_4" y="277" x="272.0023" stroke-width="0" fill="#007fff">Cycle</text>
  <text xml:space="preserve" text-anchor="middle" font-family="serif" font-size="24" id="svg_3" y="257" x="313" stroke-width="0" stroke="#fffcfc" fill="#007fff">Water</text>
  <text xml:space="preserve" text-anchor="middle" font-family="serif" font-size="24" id="svg_2" y="235" x="316" stroke-width="0" stroke="#fffcfc" fill="#007fff">The</text>
 </g>
</svg>